<?xml version="1.0" encoding="UTF-8" standalone="no"?>
<!DOCTYPE svg PUBLIC "-//W3C//DTD SVG 20010904//EN"
              "http://www.w3.org/TR/2001/REC-SVG-20010904/DTD/svg10.dtd">

<svg xmlns="http://www.w3.org/2000/svg"
     width="289.021mm" height="289.021mm"
     viewBox="0 0 1024 1024">
  <path id="Selection"
        style="fill:#00cec9;fill-rule:nonzero;stroke-width:1"
        d="M 336.00,688.00
           C 327.07,679.05 328.53,661.90 335.10,652.00
             339.68,645.11 357.26,628.19 364.00,621.91
             364.00,621.91 383.17,602.17 383.17,602.17
             383.17,602.17 399.00,587.00 399.00,587.00
             399.00,587.00 410.04,575.04 410.04,575.04
             410.04,575.04 424.00,562.00 424.00,562.00
             428.01,557.97 432.56,552.09 437.00,549.10
             440.03,547.07 444.39,544.96 448.00,544.33
             454.20,543.24 456.40,545.59 462.00,540.85
             462.00,540.85 493.00,510.00 493.00,510.00
             493.00,510.00 555.00,448.00 555.00,448.00
             555.00,448.00 589.00,414.00 589.00,414.00
             589.00,414.00 605.13,397.42 605.13,397.42
             607.00,394.12 602.26,381.09 601.15,377.00
             601.15,377.00 592.13,343.00 592.13,343.00
             590.58,336.81 588.51,331.51 589.06,325.00
             589.60,318.62 596.66,313.34 601.00,309.00
             601.00,309.00 636.00,274.02 636.00,274.02
             638.09,272.02 640.07,269.98 643.00,269.33
             648.57,268.10 662.39,275.98 668.00,278.39
             668.00,278.39 705.00,294.66 705.00,294.66
             709.85,296.11 714.53,292.72 722.00,294.66
             735.73,297.86 738.15,313.51 731.00,324.00
             735.19,327.86 737.73,333.24 740.79,338.00
             740.79,338.00 760.35,369.00 760.35,369.00
             763.51,374.10 769.18,380.68 767.68,387.00
             766.60,391.57 757.57,399.43 754.00,403.00
             754.00,403.00 719.00,437.85 719.00,437.85
             712.81,443.09 706.07,440.67 699.00,438.87
             699.00,438.87 652.00,425.91 652.00,425.91
             648.89,425.03 636.46,421.59 634.00,422.06
             631.88,422.47 630.56,423.68 629.00,425.07
             629.00,425.07 602.00,452.00 602.00,452.00
             602.00,452.00 549.00,505.00 549.00,505.00
             549.00,505.00 509.00,545.00 509.00,545.00
             509.00,545.00 488.23,566.00 488.23,566.00
             483.39,571.90 485.80,574.59 484.67,581.00
             484.03,584.65 481.94,588.92 479.90,592.00
             474.24,600.52 465.31,608.05 458.00,615.04
             458.00,615.04 435.09,638.13 435.09,638.13
             435.09,638.13 412.96,660.96 412.96,660.96
             412.96,660.96 395.09,678.00 395.09,678.00
             385.59,688.19 376.20,699.82 361.00,700.00
             357.65,700.04 354.25,700.12 351.00,699.21
             347.91,698.35 345.20,696.27 342.00,697.81
             339.56,698.98 330.53,708.47 328.00,711.00
             328.00,711.00 299.00,740.00 299.00,740.00
             296.30,742.70 286.36,753.33 283.72,754.43
             281.90,755.18 278.06,755.00 276.00,755.00
             276.00,755.00 276.60,749.00 276.60,749.00
             276.60,749.00 291.00,733.00 291.00,733.00
             291.00,733.00 336.00,688.00 336.00,688.00 Z
           M 699.00,303.00
           C 699.00,303.00 662.00,286.41 662.00,286.41
             659.25,285.10 648.41,279.83 646.00,280.09
             643.36,280.37 640.81,283.23 639.00,285.00
             639.00,285.00 625.00,299.00 625.00,299.00
             625.00,299.00 607.00,317.00 607.00,317.00
             604.56,319.44 599.66,323.82 598.64,327.00
             597.40,330.82 601.27,340.72 602.37,345.00
             602.37,345.00 614.00,389.00 614.00,389.00
             620.09,384.64 629.31,374.69 635.00,369.00
             635.00,369.00 672.00,332.00 672.00,332.00
             678.32,325.68 695.75,309.88 699.00,303.00 Z
           M 482.00,558.00
           C 482.00,558.00 670.00,370.00 670.00,370.00
             670.00,370.00 718.28,320.91 718.28,320.91
             720.59,318.43 723.74,315.35 724.55,312.00
             725.97,306.18 721.64,302.39 716.00,303.24
             710.64,304.05 703.29,313.40 698.99,317.28
             698.99,317.28 683.99,333.00 683.99,333.00
             683.99,333.00 652.00,365.00 652.00,365.00
             652.00,365.00 531.00,486.00 531.00,486.00
             531.00,486.00 492.00,525.00 492.00,525.00
             486.06,530.94 474.45,541.78 470.00,548.00
             470.00,548.00 482.00,558.00 482.00,558.00 Z
           M 724.00,330.00
           C 724.00,330.00 682.00,371.00 682.00,371.00
             682.00,371.00 641.00,413.00 641.00,413.00
             647.29,416.05 656.07,417.62 663.00,419.37
             663.00,419.37 691.00,427.12 691.00,427.12
             694.43,428.02 707.33,431.70 710.00,431.10
             713.67,430.28 721.06,421.94 724.00,419.00
             724.00,419.00 758.00,384.00 758.00,384.00
             758.00,384.00 738.35,353.00 738.35,353.00
             738.35,353.00 724.00,330.00 724.00,330.00 Z
           M 454.00,553.39
           C 447.30,554.42 442.98,556.31 438.02,561.09
             436.22,562.83 433.64,565.22 434.34,568.00
             435.03,570.79 445.40,580.40 448.00,583.00
             450.68,585.68 459.62,595.80 463.00,595.80
             469.35,595.80 476.19,581.89 476.61,576.00
             477.53,563.09 466.17,553.53 454.00,553.39 Z
           M 426.00,574.00
           C 420.12,578.21 411.02,587.50 405.91,593.00
             404.16,594.89 400.20,598.32 400.20,601.00
             400.20,604.33 409.43,612.43 412.00,615.00
             414.71,617.71 425.18,628.96 428.00,629.66
             431.13,630.45 434.79,626.33 437.00,624.42
             441.00,620.96 453.04,608.13 456.00,604.00
             456.00,604.00 426.00,574.00 426.00,574.00 Z
           M 392.00,608.00
           C 386.10,612.23 377.44,621.52 372.00,627.00
             369.91,629.11 365.51,632.68 366.34,636.00
             367.04,638.82 378.30,649.30 381.00,652.00
             383.57,654.57 391.67,663.80 395.00,663.80
             397.65,663.80 401.09,659.88 403.00,658.17
             403.00,658.17 409.83,651.96 409.83,651.96
             414.84,646.66 415.51,644.65 422.00,640.00
             422.00,640.00 411.00,627.00 411.00,627.00
             411.00,627.00 392.00,608.00 392.00,608.00 Z
           M 358.00,643.20
           C 353.72,644.52 352.12,646.85 349.00,650.00
             343.21,655.85 337.46,663.18 338.34,672.00
             339.44,683.12 347.69,691.81 359.00,692.61
             369.16,693.33 374.82,686.54 381.04,680.00
             382.82,678.13 386.80,674.71 386.80,672.00
             386.80,669.31 382.80,665.82 381.00,664.00
             375.94,658.90 364.05,645.07 358.00,643.20 Z" />
</svg>
